<svg width="1698" height="1949" viewBox="0 0 1698 1949" fill="none" xmlns="http://www.w3.org/2000/svg">
<path d="M1307 139.357C1405.89 128.013 1444.05 234.462 1465.52 310.67C1501.98 440.012 1500.59 576.047 1491.53 708.904C1479.94 878.792 1452.42 1046.71 1402.19 1209.62C1385.06 1265.33 1366.36 1317.46 1345.16 1372.07C1318.71 1440.21 1292.33 1507.54 1256.22 1571.71C1212.43 1649.5 1143.51 1738.45 1053.7 1764.99C1022.07 1774.33 987.058 1772.9 958.104 1756.53C920.977 1735.53 896.961 1693.36 886.329 1652.77C862.875 1563.21 856.092 1464.2 871.676 1372.7C875.437 1350.62 881.314 1324.12 892.389 1304.89C900.205 1291.31 907.5 1285.14 922.433 1281.18C940.422 1286.52 948.171 1298.64 952.622 1316.26C958.142 1338.08 959.084 1362.48 961.055 1384.99L972.876 1524.3C974.542 1542.74 975.389 1560.86 977.844 1579.31C980.176 1596.9 993.692 1618.06 1013.88 1613.85C1028.43 1610.82 1042.93 1584.26 1050.64 1572.17C1100.03 1495.45 1127.18 1387.3 1151.28 1299.4C1192.02 1154.72 1224.04 1007.72 1247.15 859.21C1269.56 723.801 1287.48 585.895 1278.82 448.391C1277.28 424.007 1268.85 398.198 1238.6 402.659C1216.02 405.987 1196.83 430.665 1183.17 447.386C1118.38 526.639 1074.68 620.378 1034.52 713.804C1009.88 771.024 985.773 832.044 949.599 883.112C940.276 895.126 925.724 915.742 910.072 918.321C893.298 921.085 888.838 893.028 888.193 881.091C884.891 820.001 892.032 758.248 906.957 698.981C922.796 636.08 947.436 576.467 973.647 517.33C1013.74 425.613 1056.22 332.951 1120.32 255.187C1165.48 200.395 1233.78 145.879 1307 139.357Z" fill="#FEFEFE"/>
<path d="M404.088 519.072C411.205 518.866 418.247 518.712 425.405 518.93C499.222 521.186 557.788 580.157 600.832 634.544C626.58 667.077 645.783 708.339 661.794 746.386C676.545 781.439 689.107 817.373 699.406 853.983C727.348 952.05 736.631 1054.5 726.773 1155.99C725.111 1172.4 724.295 1193.49 716.552 1208.02C704.216 1231.17 673.137 1222.65 662.856 1202.44C652.636 1182.35 646.815 1157.59 640.087 1135.78C631.354 1107.54 622.206 1079.44 612.643 1051.48C601.365 1018.67 588.878 986.291 575.207 954.401C552.628 902.568 525.485 853.076 499.738 802.797C489.391 782.593 477.684 753.835 465.847 735.695C460.417 727.374 453.316 719.672 444.668 714.63C437 710.159 427.929 708.241 419.263 710.796C409.013 713.817 402.283 722.37 397.43 731.398C381.947 760.199 374.678 795.487 369.843 827.543C346.105 984.93 381.406 1205.16 427.214 1358.73C450.866 1434.27 482.353 1507.7 526.402 1573.69C540.95 1595.5 554.973 1615.05 576.263 1631.11C598.145 1647.6 622.7 1641.23 644.254 1657.15C655.258 1665.44 662.481 1677.8 664.308 1691.45C670.075 1733.73 625.162 1768.2 587.292 1771.9C465.748 1783.74 390.565 1679.42 337.565 1588.62C254.762 1449.73 201.303 1295.34 180.488 1134.99C174.421 1084.75 172.059 1034.13 173.421 983.541C176.818 872.363 205.098 683.172 275.697 592.893C308.686 550.707 350.595 525.508 404.088 519.072Z" fill="#FEFEFE"/>
</svg>
