<svg width="1248" height="702" viewBox="0 0 1248 702" fill="none" xmlns="http://www.w3.org/2000/svg">
<path d="M1065.82 136.151C1084.05 136.111 1113 140.273 1126.87 152.955C1153.31 177.129 1150.47 222.161 1150.53 254.393L1150.59 318.956L1150.5 364.673C1150.41 392.176 1150.23 424.42 1131.42 446.916C1117.97 462.998 1090.92 466.696 1071.16 467.92C1052.86 468.514 1022.76 463.96 1008.75 451.64C983.8 429.699 984.909 387.893 984.896 358.16L984.909 302.938C984.842 268.738 982.989 232.127 987.035 198.043C988.492 185.755 995.573 167.242 1003.6 157.681C1018.08 140.442 1044.79 137.761 1065.82 136.151ZM1072.98 412.729C1076.85 411.596 1084.69 408.844 1086.07 405.066C1090.53 392.829 1089.48 374.841 1089.53 362.255L1089.62 315.15L1089.58 262.096C1089.57 252.462 1089.75 242.601 1089.51 232.977C1088.95 210.378 1087.23 201.957 1062.57 202.509C1050.77 204.994 1047.13 211.039 1046.46 222.703C1045.89 232.394 1046.04 241.993 1046 251.691L1045.88 299.699L1045.79 356.732C1045.78 371.512 1044.97 387.922 1047.97 402.322C1049.99 412.069 1065 413.243 1072.98 412.729Z" fill="#FEFEFE"/>
<path d="M328.071 141.544C338.407 140.791 353.333 141.719 364.181 141.407C375.853 141.576 387.615 141.045 399.269 141.65C407.414 142.072 414.68 145.47 416.651 153.917C419.495 166.11 421.106 178.766 422.798 191.128L431.926 259.597L448.412 383.759C449.9 395.079 459.114 452.477 455.607 459.416C452.906 461.94 449.751 462.698 446.153 463.168C438.065 464.223 406.253 465.037 400.233 460.214C394.155 455.345 391.374 415.683 390.248 405.86C390.031 403.752 389.814 401.615 389.231 399.571C388.794 398.034 387.959 396.612 386.474 395.89C382.945 394.174 346.903 394.261 342.849 395.834C340.766 396.642 339.991 398.177 339.322 400.205C337.979 404.281 337.917 409.053 337.454 413.325C336.404 423.001 334.364 449.149 331.014 456.386C329.837 458.928 328.271 460.756 325.568 461.699C318.609 464.127 281.182 464.719 274.872 461.329C273.584 460.637 272.249 459.132 271.944 457.673C269.898 447.894 276.817 407.897 278.501 395.244L289.368 314.048L302.588 214.64C304.771 198.409 306.719 182.104 309.224 165.922C310.362 160.573 310.881 154.948 313.608 150.104C317.02 144.047 321.718 142.608 328.071 141.544ZM365.646 335.012C370.447 335.091 377.355 335.889 381.09 333.314C383.08 329.933 380.139 310.744 379.612 305.854L376.135 271.017C374.725 256.772 373.716 242.096 371.593 227.936C371.007 224.03 367.659 222.291 363.918 222.429C361.6 223.045 358.687 223.472 357.468 225.815C355.521 229.557 346.482 331.253 347.29 333.207C347.594 333.943 348.196 334.077 348.911 334.366C353.223 336.108 360.929 335.089 365.646 335.012Z" fill="#FEFEFE"/>
<path d="M791.103 141.477C802.059 141.051 819.287 140.407 829.884 141.667C832.985 142.035 836.727 142.718 838.957 145.102C847.464 154.188 844.844 200.989 850.608 207.668C853.613 211.143 881.875 209.669 888.134 209.761C890.943 209.803 895.495 210.066 897.567 207.902C903.947 201.228 901.174 152.275 910.029 144.398C915.153 139.836 946.244 140.948 954.3 141.476C957.432 141.681 963.404 142.429 965.5 145.094C967.285 147.355 967.237 151.808 967.097 154.537C966.646 163.099 964.83 171.774 963.672 180.268L957.828 225.06L937.725 376.084C935.805 391.94 930.827 441.055 925.622 452.805C923.752 457.04 921.454 460.168 916.988 461.778C911.272 463.838 849.871 463.947 841.279 463.275C837.3 462.963 833.125 462.345 829.518 460.564C825.356 458.512 822.906 454.456 821.547 450.142C818.123 439.229 816.819 421.34 815.246 409.496L805.307 334.232L788.763 210.504C786.289 191.848 783.632 173.204 781.45 154.515C780.451 145.959 783.084 143.402 791.103 141.477ZM881.619 377.19C883.307 365.838 892.619 277.386 891.016 271.171C887.573 268.347 866.915 269.489 861.571 269.556C859.7 270.063 858.628 270.132 857.366 271.562C854.752 278.222 866.409 362.168 866.988 375.904C867.244 381.996 875.057 386.293 881.619 377.19Z" fill="#FEFEFE"/>
<path d="M175.738 136.826C194.767 135.05 224.658 139.56 239.663 152.67C256.198 167.118 260.948 191.383 262.204 212.797C262.723 221.64 264.489 247.617 260.127 256.307C254.935 261.8 228.881 258.99 221.102 259.652C217.669 259.944 207.288 258.714 206.041 256.184C199.126 242.15 208.574 214.195 196.623 201.523C192.617 197.57 187.352 197.054 182.043 196.96C155.974 196.498 158.59 217.469 158.573 236.024L158.554 269.71C158.543 305.372 158.518 341.098 158.616 376.744C158.635 383.72 159.334 397.247 164.617 401.951C169.476 406.277 178.204 407.94 183.976 407.362C215.456 404.212 195.963 364.551 206.209 348.02C209.395 342.878 228.192 344.326 235.523 344.414C247.321 344.296 263.001 341.429 262.748 357.846C262.91 385.248 263.512 426.122 243.627 447.769C218.929 474.657 145.466 474.019 119.145 449.766C100.262 432.367 98.2384 399.202 97.5334 375.257C96.6541 345.389 98.0629 315.091 98.0325 285.262L97.8844 234.534C98.0063 207.765 98.1336 176.554 117.676 155.508C131.128 141.022 156.96 137.06 175.738 136.826Z" fill="#FEFEFE"/>
<path d="M639.85 141.474C649.161 141.126 677.582 139.891 681.769 146.296C689.197 157.653 692.11 192.235 693.895 205.45L704.249 283.203L714.395 359.878C716.119 372.754 719.02 390.334 719.91 402.905C731.853 402.873 777.898 401.004 785.326 405.543C787.282 406.737 788.111 409.668 788.629 411.78C790.311 418.643 791.042 453.306 787.611 458.688C785.655 461.753 782.084 462.315 778.812 462.998C762.572 464.305 742.67 463.237 726.034 463.569C711.232 463.385 696.278 463.967 681.495 463.344C675.596 463.096 667.857 462.078 666.254 455.452C664.133 446.705 663.396 437.655 662.263 428.757L655.048 371.738L637.699 235.09C634.365 208.905 630.88 182.534 627.9 156.298C627.626 153.88 628.473 150.717 629.637 148.598C632.281 143.764 634.963 143.056 639.85 141.474Z" fill="#FEFEFE"/>
<path d="M476.993 141.464C480.969 141.424 484.977 141.277 489.006 141.356C504.332 141.654 520.024 138.35 523.479 157.65C527.065 177.681 529.641 197.462 532.3 217.521L544.611 310.338L552.812 372.125C553.698 378.768 556.553 396.949 556.642 402.911C568.183 402.886 614.354 400.794 622.251 405.626C624.043 406.722 625.024 410.096 625.45 412.023C626.803 418.171 627.431 454.499 624.268 458.861C622.141 461.8 618.315 462.448 614.981 462.966C600.208 464.654 582.035 463.162 566.972 463.587C550.671 464.048 533.704 463.578 517.386 463.314C508.864 463.177 503.716 461.074 502.331 452.17C499.973 438.626 498.441 424.791 496.734 411.137L486.205 327.395L471.862 214.328C470.165 201.418 468.547 188.497 467.009 175.567C465.226 161.509 459.078 146.265 476.993 141.464Z" fill="#FEFEFE"/>
<path d="M744.955 527.327C755.534 526.162 765.058 533.783 766.24 544.359C767.423 554.935 759.818 564.47 749.239 565.668C738.648 566.867 729.087 559.241 727.898 548.643C726.716 538.045 734.358 528.496 744.955 527.327ZM749.684 559.507C754.126 558.395 755.79 556.156 758.318 552.33C758.702 545.637 759.61 541.419 754.961 536.257L754.028 535.23C753.943 535.138 753.858 535.048 753.772 534.956C750.439 533.78 749.294 533.224 745.82 533.267C742.389 534.054 738.776 535.488 737.222 538.74C731.707 550.258 737.143 559.855 749.684 559.507Z" fill="#FEFEFE"/>
<path d="M568.776 527.254C579.169 526.386 588.369 533.936 589.546 544.299C590.723 554.661 583.451 564.082 573.128 565.567C566.171 566.568 559.222 563.706 554.987 558.097C550.752 552.488 549.904 545.019 552.773 538.603C555.641 532.187 561.772 527.839 568.776 527.254ZM573.453 559.5C577.393 557.841 579.431 556.423 581.107 552.235C582.615 548.43 582.576 544.185 580.997 540.409C578.817 535.31 574.544 533.037 569.088 533.265C556.507 536.229 554.62 550.933 564.776 558.216C567.104 559.885 570.61 559.57 573.453 559.5Z" fill="#FEFEFE"/>
<path d="M501.454 527.287C512.053 526.351 521.405 534.179 522.348 544.777C523.291 555.375 515.468 564.732 504.871 565.682C494.264 566.634 484.897 558.802 483.952 548.194C483.008 537.587 490.846 528.224 501.454 527.287ZM506.325 559.5C520.724 552.902 515.816 531.988 502.024 533.307C489.328 535.906 487.514 550.964 497.475 558.198C499.765 559.861 503.481 559.558 506.325 559.5Z" fill="#FEFEFE"/>
<path d="M428.096 527.251C432.221 527.929 437.188 527.361 441.573 527.932C456.514 529.878 459.082 540.85 446.349 549.252C448.192 551.714 456.36 562.681 456.049 564.908C453.901 565.729 451.605 565.27 449.275 565.048C447.389 562.422 440.509 551.538 438.787 550.683C436.35 550.514 437.13 550.247 435.398 551.313C433.393 555.597 437.282 562.511 434.152 564.946C432.074 565.119 430.767 565.398 428.801 564.707C426.99 561.535 427.87 532.641 428.096 527.251ZM435.119 545.46C439.676 545.474 441.588 545.929 445.566 543.667C449.973 533.844 442.606 533.097 435.034 533.189L435.119 545.46Z" fill="#FEFEFE"/>
<path d="M797.526 527.533C811.913 527.712 826.373 525.295 823.753 544.729C823.217 545.512 822.644 546.263 822.029 546.982C818.811 550.787 816.038 551.694 811.23 552.065C808.549 551.976 807.465 551.877 804.863 552.438C803.827 555.106 805.649 560.301 804.473 564.3C801.938 566.523 799.835 566.058 797.617 563.709C796.898 559.829 797.318 532.301 797.526 527.533ZM804.747 546.532C808.397 546.559 811.828 546.995 815.051 545.379C822.346 534.996 812.705 533.123 804.485 533.151C804.619 537.61 804.704 542.071 804.747 546.532Z" fill="#FEFEFE"/>
<path d="M620.453 527.555C624.737 527.672 642.184 526.73 644.268 528.49C644.566 530.309 644.713 530.522 644.073 532.168C640.861 534.462 632.013 533.487 627.62 533.34L627.717 544.292C631.355 544.378 638.796 543.178 641.361 545.135C642.019 545.634 642.038 547.863 642.159 548.96C639.143 551.244 631.788 550.33 627.595 550.235C627.687 553.906 628.698 562.899 626.169 565.186C624.128 565.293 622.958 565.532 621.124 564.562C619.509 561.358 620.392 533.088 620.453 527.555Z" fill="#FEFEFE"/>
<path d="M672.659 527.738C678.381 527.496 696.363 527.198 701.232 527.853L701.872 528.855C701.958 530.973 702.341 531.515 701.409 533.096C698.734 534.153 693.64 533.749 690.574 533.693C690.83 539.901 690.611 548.142 690.605 554.497C690.849 559.102 692.488 568.079 684.158 565.014C682.616 561.227 683.262 539.257 683.305 533.652C680.428 533.629 675.925 534.43 673.67 533.209C672.147 531.05 672.677 530.935 672.659 527.738Z" fill="#FEFEFE"/>
</svg>
